<?xml version="1.0" standalone="no"?>
<!DOCTYPE svg PUBLIC "-//W3C//DTD SVG 20010904//EN"
 "http://www.w3.org/TR/2001/REC-SVG-20010904/DTD/svg10.dtd">
<svg version="1.0" xmlns="http://www.w3.org/2000/svg"
 width="1070.000000pt" height="1070.000000pt" viewBox="0 0 1070.000000 1070.000000"
 preserveAspectRatio="xMidYMid meet">
<metadata>
Created by potrace 1.14, written by Peter Selinger 2001-2017
</metadata>
<g transform="translate(0.000000,1070.000000) scale(0.100000,-0.100000)"
fill="#000000" stroke="none">
<path d="M6983 7870 c-13 -5 -23 -7 -23 -4 0 3 -20 -9 -44 -26 -47 -34 -80
-74 -97 -117 -19 -48 -19 -44 -19 -403 1 -246 1 -337 1 -350 0 -8 0 -58 0
-110 0 -52 0 -99 0 -105 0 -5 0 -62 0 -125 0 -145 0 -132 0 -250 0 -55 0 -108
0 -117 0 -10 0 -45 0 -78 0 -33 0 -64 0 -70 0 -5 0 -62 0 -125 0 -145 0 -132
0 -250 0 -55 0 -108 0 -117 0 -10 0 -45 0 -78 0 -33 0 -64 0 -70 0 -5 0 -62 0
-125 0 -145 0 -132 0 -250 0 -55 0 -108 0 -117 0 -10 0 -45 0 -78 0 -33 0 -64
0 -70 0 -8 0 -99 0 -257 0 -226 0 -256 -2 -358 0 -19 0 -62 0 -95 1 -68 2
-332 2 -355 -4 -164 3 -212 37 -270 66 -109 208 -149 325 -93 39 19 89 70 114
115 17 32 18 127 18 2103 0 1980 -1 2072 -18 2108 -23 47 -75 107 -93 107 -8
0 -14 5 -14 12 0 6 -3 9 -6 6 -3 -4 -21 0 -39 8 -38 16 -108 18 -142 4z"/>
<path d="M5615 7810 c-50 -17 -108 -63 -137 -110 -30 -49 -41 -115 -39 -235 1
-38 1 -76 1 -82 0 -42 0 -105 0 -115 1 -7 -1 -32 -2 -56 -2 -23 0 -42 4 -42 4
0 3 -12 -1 -27 -4 -16 -4 -40 0 -55 4 -16 4 -28 1 -28 -8 0 -6 -85 2 -106 3
-8 2 -14 -3 -14 -4 0 -5 -19 -1 -42 3 -24 3 -58 -1 -76 -4 -18 -3 -35 1 -37 5
-3 5 -18 0 -34 -4 -15 -4 -34 0 -41 4 -7 4 -25 0 -40 -4 -15 -4 -33 0 -40 5
-7 6 -19 3 -27 -8 -20 -9 -213 -1 -213 4 0 3 -12 -1 -27 -4 -16 -4 -40 0 -55
4 -16 4 -28 1 -28 -4 0 -7 -29 -7 -65 0 -36 3 -65 7 -65 4 0 3 -12 -1 -27 -4
-16 -4 -40 0 -55 4 -16 4 -28 1 -28 -8 0 -6 -105 2 -125 2 -7 1 -29 -4 -49 -4
-20 -4 -38 0 -41 5 -3 5 -18 0 -34 -4 -15 -4 -34 0 -41 4 -7 4 -25 0 -40 -4
-15 -4 -33 0 -40 5 -7 5 -23 0 -34 -4 -12 -4 -30 0 -41 4 -11 4 -32 0 -46 -4
-15 -4 -32 0 -39 5 -7 5 -23 0 -34 -4 -12 -4 -30 0 -41 4 -11 4 -32 0 -46 -4
-15 -4 -32 0 -39 5 -7 6 -19 3 -27 -8 -20 -9 -213 -1 -213 4 0 3 -12 -1 -27
-4 -16 -4 -40 0 -55 4 -16 4 -28 1 -28 -4 0 -7 -29 -7 -65 0 -36 3 -65 7 -65
4 0 3 -12 -1 -27 -4 -16 -4 -40 0 -55 4 -16 4 -28 1 -28 -8 0 -6 -105 2 -125
2 -7 1 -29 -4 -49 -4 -20 -4 -38 0 -41 5 -3 5 -18 0 -34 -4 -15 -4 -34 0 -41
4 -7 4 -25 0 -40 -4 -15 -4 -33 0 -41 5 -7 6 -17 3 -22 -3 -5 -5 -43 -4 -85 1
-43 1 -85 1 -94 0 -10 0 -38 0 -63 0 -25 0 -51 0 -57 1 -7 -1 -32 -2 -56 -2
-23 0 -42 4 -42 4 0 3 -12 -1 -27 -4 -16 -4 -40 0 -55 4 -16 4 -28 1 -28 -8 0
-6 -85 2 -106 3 -8 2 -14 -3 -14 -4 0 -5 -19 -1 -42 3 -24 3 -58 -1 -76 -4
-18 -3 -35 1 -37 5 -3 5 -18 0 -34 -4 -15 -4 -34 0 -41 4 -7 4 -25 0 -40 -4
-15 -4 -33 0 -41 5 -7 6 -17 3 -22 -8 -13 -6 -204 2 -217 3 -5 3 -10 -2 -10
-4 0 -7 -19 -6 -42 1 -24 2 -43 3 -43 0 0 3 -23 5 -51 5 -81 48 -147 121 -190
57 -34 152 -41 216 -16 56 22 119 85 141 142 16 42 17 178 15 2355 l-3 2310
-28 46 c-32 53 -48 69 -101 99 -45 24 -144 35 -191 20z"/>
<path d="M3555 7540 c-72 -31 -121 -89 -149 -174 -5 -14 -7 -459 -5 -901 0
-11 0 -729 0 -1595 -1 -866 1 -1586 3 -1600 17 -114 113 -200 231 -206 82 -4
135 17 192 73 79 80 74 -101 71 2198 l-3 2050 -24 40 c-32 55 -49 73 -99 102
-56 33 -158 39 -217 13z"/>
<path d="M4247 7306 c-44 -16 -61 -28 -105 -75 -38 -41 -72 -142 -61 -182 4
-15 3 -32 -1 -39 -4 -7 -4 -26 1 -43 5 -16 6 -34 2 -40 -8 -13 -7 -123 2 -136
3 -6 2 -11 -4 -11 -6 0 -8 -6 -5 -14 7 -18 10 -116 4 -116 -5 0 -4 -68 2 -188
2 -28 1 -52 -2 -52 -4 0 -4 -55 0 -170 0 -14 0 -43 -1 -65 0 -22 0 -44 1 -50
1 -5 2 -13 1 -17 -4 -29 -4 -138 1 -143 3 -3 2 -22 -1 -43 -4 -20 -4 -52 0
-69 3 -18 3 -33 -2 -33 -5 0 -6 -6 -3 -14 7 -18 10 -116 4 -116 -5 0 -4 -68 2
-188 2 -28 1 -52 -2 -52 -4 0 -4 -55 0 -170 0 -14 0 -43 -1 -65 0 -22 0 -44 1
-50 1 -5 2 -13 1 -17 -4 -29 -4 -138 1 -143 3 -3 2 -22 -1 -43 -4 -20 -4 -52
0 -69 3 -18 3 -33 -2 -33 -5 0 -6 -6 -3 -14 7 -18 10 -116 4 -116 -5 0 -4 -68
2 -188 2 -28 1 -52 -2 -52 -4 0 -4 -62 0 -170 1 -21 1 -153 1 -272 -1 -63 0
-293 1 -308 0 -8 0 -26 -1 -40 -1 -14 -1 -34 -1 -45 0 -11 0 -40 0 -65 0 -73
26 -144 68 -187 60 -62 96 -77 182 -78 86 0 119 14 179 74 77 77 71 -75 71
1923 0 1638 -1 1791 -17 1830 -39 103 -114 159 -217 164 -33 2 -78 -3 -99 -10z"/>
<path d="M9006 7044 c-84 -31 -147 -105 -161 -190 -6 -39 -10 -187 -5 -209 1
-5 2 -14 1 -20 -2 -12 -2 -260 0 -272 1 -4 1 -12 0 -18 -3 -13 -3 -158 0 -171
1 -5 1 -13 0 -19 -2 -12 -2 -260 0 -272 1 -4 1 -12 0 -18 -3 -13 -3 -158 0
-171 1 -5 0 -13 -1 -19 -2 -12 -2 -128 1 -141 1 -5 1 -13 0 -19 -2 -12 -2
-260 0 -272 1 -4 1 -12 0 -18 -3 -13 -3 -158 0 -171 1 -5 1 -13 0 -19 -2 -12
-2 -260 0 -272 1 -4 1 -12 0 -18 -3 -13 -3 -158 0 -171 1 -5 1 -13 0 -19 -2
-12 -2 -260 0 -272 1 -4 1 -12 0 -18 -3 -13 -3 -158 0 -171 1 -5 1 -13 0 -19
-4 -22 -1 -253 4 -294 2 -24 10 -50 16 -57 6 -8 8 -14 5 -14 -4 0 -2 -6 4 -12
5 -7 19 -25 30 -40 60 -79 198 -109 293 -63 64 30 92 58 122 120 l25 50 -2
1565 -3 1565 -29 48 c-15 26 -43 59 -60 72 -66 50 -167 67 -240 39z"/>
<path d="M1540 6970 c-107 -31 -187 -146 -178 -256 2 -24 1 -44 -2 -44 -4 0
-5 -24 0 -140 1 -19 1 -84 0 -143 -1 -60 0 -111 3 -113 3 -3 1 -21 -3 -40 -5
-20 -4 -34 2 -34 5 0 7 -4 4 -9 -5 -7 -7 -76 -5 -161 0 -8 -1 -64 -1 -123 -1
-60 0 -111 3 -113 3 -3 1 -21 -3 -40 -5 -20 -4 -34 2 -34 5 0 7 -4 4 -9 -5 -7
-7 -76 -5 -161 0 -8 -1 -64 -1 -123 -1 -60 0 -111 3 -113 3 -3 1 -21 -3 -40
-5 -20 -4 -34 2 -34 5 0 7 -4 4 -9 -5 -7 -7 -76 -5 -161 0 -8 -1 -64 -1 -123
-1 -60 0 -111 3 -113 3 -3 1 -21 -3 -40 -5 -20 -4 -34 2 -34 5 0 7 -4 4 -9 -5
-7 -7 -76 -5 -161 0 -8 0 -62 0 -120 0 -58 0 -112 0 -120 0 -8 -1 -35 -2 -60
-7 -178 83 -297 232 -305 107 -6 194 42 246 137 17 31 18 100 18 1358 l0 1325
-28 47 c-27 45 -66 81 -116 108 -28 14 -135 21 -171 10z"/>
<path d="M7670 6813 c-68 -22 -125 -66 -156 -120 -21 -35 -27 -62 -33 -142 -3
-54 -3 -110 0 -123 3 -12 3 -30 -1 -38 -4 -8 -5 -23 -1 -33 4 -10 4 -44 1 -75
-3 -32 -3 -74 1 -95 3 -20 3 -37 0 -37 -5 0 -5 -98 -1 -210 1 -14 1 -86 0
-160 -1 -74 -1 -139 0 -145 1 -5 2 -14 1 -20 -3 -14 -3 -288 -1 -300 1 -5 2
-14 1 -20 -2 -5 -2 -44 -1 -85 1 -41 1 -82 0 -90 0 -8 0 -24 0 -35 2 -31 2
-35 0 -117 -1 -42 1 -82 5 -87 3 -6 3 -11 -2 -11 -7 0 -8 -86 -3 -210 1 -14 1
-86 0 -160 -1 -74 -1 -139 0 -145 1 -5 2 -14 1 -20 -2 -5 -2 -44 -1 -85 1 -41
1 -82 1 -90 -5 -129 7 -183 56 -246 61 -80 174 -111 278 -76 61 21 98 53 133
112 l27 45 3 1305 c2 1471 8 1368 -73 1446 -61 59 -168 89 -235 67z"/>
<path d="M2871 6618 c-24 -10 -61 -36 -82 -59 -53 -56 -71 -117 -69 -231 0
-10 0 -26 0 -35 0 -10 0 -62 -1 -115 -1 -53 1 -100 4 -105 2 -4 1 -17 -3 -28
-4 -11 -4 -30 1 -42 5 -12 4 -25 0 -28 -5 -3 -5 -21 -1 -41 5 -19 5 -48 0 -63
-4 -16 -4 -34 0 -41 5 -7 6 -19 3 -26 -7 -20 -9 -174 -2 -174 4 0 4 -15 0 -32
-4 -18 -4 -48 0 -65 3 -19 2 -33 -3 -33 -5 0 -7 -4 -3 -9 3 -5 5 -31 5 -58 0
-45 0 -59 0 -100 0 -10 0 -62 -1 -115 -1 -53 1 -100 4 -105 2 -4 1 -17 -3 -28
-4 -11 -4 -30 1 -42 5 -12 4 -25 0 -28 -5 -3 -5 -21 -1 -41 5 -19 5 -48 0 -63
-4 -16 -4 -34 0 -41 5 -7 6 -19 3 -26 -7 -20 -9 -174 -2 -174 4 0 4 -15 0 -32
-4 -18 -4 -48 0 -65 3 -19 2 -33 -3 -33 -5 0 -7 -4 -3 -9 3 -5 5 -31 5 -58 0
-45 0 -59 0 -100 0 -10 0 -62 -1 -115 -1 -53 1 -100 4 -105 2 -4 1 -17 -3 -28
-4 -11 -4 -30 1 -42 5 -12 4 -25 0 -28 -5 -3 -5 -21 -1 -41 5 -19 5 -48 0 -64
-4 -16 -7 -30 -5 -32 2 -2 6 -27 9 -56 3 -28 13 -66 22 -84 20 -39 73 -92 113
-112 41 -22 129 -30 177 -17 60 16 128 72 155 128 29 58 29 63 28 838 0 297 0
549 0 560 0 11 0 67 0 125 -1 58 -1 112 0 120 0 8 0 62 0 120 -1 58 -1 112 0
120 0 8 0 62 0 120 -1 58 -1 112 0 120 0 8 0 62 0 120 0 58 0 112 0 120 2 79
-1 282 -3 297 -30 153 -201 243 -345 181z"/>
<path d="M6287 6465 c-80 -28 -147 -105 -163 -189 -4 -22 -7 -224 -4 -241 1
-6 2 -14 0 -20 -1 -5 -1 -46 0 -90 1 -44 1 -87 1 -95 -1 -24 -1 -111 0 -118 1
-4 1 -11 0 -17 -2 -13 -2 -290 0 -302 1 -4 1 -12 -1 -18 -1 -5 -1 -46 0 -90 1
-44 1 -87 1 -95 -1 -24 -1 -111 0 -118 1 -4 1 -11 0 -17 -2 -13 -2 -290 0
-302 1 -4 1 -12 -1 -18 -1 -5 -1 -46 0 -90 1 -44 1 -87 1 -95 -1 -24 -1 -111
0 -118 1 -4 1 -11 0 -17 -5 -28 -2 -192 4 -228 20 -123 129 -209 256 -202 99
5 171 52 214 141 l24 49 1 1045 c0 666 -4 1058 -10 1081 -15 53 -63 114 -115
144 -54 32 -149 41 -208 20z"/>
<path d="M864 6311 c-104 -26 -188 -141 -183 -251 0 -19 0 -39 -1 -45 -2 -12
-1 -210 1 -222 1 -4 1 -12 0 -18 -3 -12 -2 -209 0 -222 1 -4 1 -12 0 -18 -3
-12 -2 -209 0 -222 1 -4 1 -12 0 -18 -4 -19 -1 -240 4 -272 5 -37 18 -64 53
-111 84 -111 265 -120 366 -19 75 75 71 36 71 673 l0 570 -25 49 c-21 41 -94
115 -106 107 -2 -1 -17 4 -32 11 -31 16 -102 19 -148 8z"/>
<path d="M2195 6299 c-90 -34 -158 -140 -155 -240 1 -19 1 -91 0 -161 -1 -71
1 -132 5 -137 3 -5 1 -12 -4 -15 -6 -4 -6 -18 -1 -35 4 -16 7 -31 5 -33 -3 -3
-6 -71 -5 -123 1 -11 0 -75 0 -142 -1 -68 1 -127 5 -132 3 -5 1 -12 -4 -15 -6
-4 -6 -18 -1 -35 4 -16 7 -31 5 -33 -3 -3 -6 -68 -5 -123 1 -11 0 -75 0 -143
0 -67 2 -127 5 -132 3 -6 3 -10 -2 -10 -8 0 -8 -93 1 -116 3 -7 1 -16 -4 -19
-6 -4 -7 -13 -2 -23 5 -9 6 -28 3 -42 -10 -35 14 -118 47 -165 45 -64 109 -98
192 -101 60 -2 78 1 121 23 58 30 99 76 123 136 14 37 16 125 13 852 l-2 810
-23 40 c-33 55 -55 78 -105 104 -57 32 -145 36 -212 10z"/>
<path d="M8343 6230 c-83 -19 -160 -103 -179 -194 -3 -12 -4 -82 -4 -156 1
-74 1 -142 1 -150 0 -8 0 -80 0 -160 0 -80 0 -149 0 -155 0 -14 0 -297 0 -315
0 -26 -1 -381 -1 -464 -1 -44 -3 -83 -6 -88 -3 -4 -1 -8 3 -8 5 0 7 -18 5 -39
-6 -61 24 -138 73 -186 120 -120 312 -89 400 65 20 34 20 54 20 860 0 790 -1
826 -19 860 -23 43 -75 94 -118 116 -35 18 -126 26 -175 14z"/>
<path d="M185 5971 c-70 -17 -125 -64 -160 -136 -24 -49 -24 -53 -24 -354 0
-249 2 -308 15 -332 8 -16 14 -31 13 -35 -4 -18 68 -86 113 -107 43 -21 65
-25 118 -23 76 4 121 24 171 77 67 71 69 86 67 434 l-3 310 -28 47 c-58 99
-170 146 -282 119z"/>
<path d="M9695 5969 c-83 -25 -162 -117 -170 -198 -2 -24 -6 -45 -9 -48 -2 -2
0 -18 4 -33 5 -16 5 -42 1 -57 -4 -15 -4 -42 0 -60 3 -18 4 -34 1 -38 -5 -4
-5 -50 -1 -200 1 -16 0 -34 -1 -40 -1 -5 -1 -48 0 -95 0 -47 1 -101 1 -120 -1
-19 -1 -73 0 -120 0 -47 0 -94 0 -105 -3 -186 5 -225 62 -287 54 -58 98 -79
175 -83 99 -6 179 38 230 124 l27 46 0 575 c0 533 -1 577 -18 608 -24 44 -75
95 -116 117 -39 19 -141 27 -186 14z"/>
<path d="M4912 5799 c-87 -38 -141 -116 -148 -213 -2 -34 -6 -70 -8 -81 -1
-11 0 -34 4 -52 4 -18 6 -34 3 -37 -5 -4 -4 -339 1 -386 12 -110 112 -200 231
-206 82 -4 135 17 192 73 68 68 73 99 73 429 0 304 -4 333 -56 401 -61 81
-196 114 -292 72z"/>
<path d="M10390 5814 c-51 -18 -106 -53 -131 -83 -57 -69 -61 -99 -57 -434 l3
-304 30 -48 c56 -90 169 -141 266 -120 72 16 141 71 173 139 25 52 25 55 26
346 0 239 -2 302 -15 339 -32 98 -117 161 -224 167 -31 2 -63 1 -71 -2z"/>
</g>
</svg>
